<svg width="64" height="36" viewBox="0 0 64 36" fill="none" xmlns="http://www.w3.org/2000/svg">
<rect x="28.2442" width="35.7559" height="35.7559" rx="17.8779" fill="#ED450F"/>
<path d="M5.89676 19.973C7.48647 19.973 8.77484 18.5663 8.77484 16.8304V12.6402C8.77484 10.9043 7.48647 9.49762 5.89676 9.49762C4.30705 9.49762 3.01868 10.9043 3.01868 12.6402V16.8304C3.01868 18.5663 4.30705 19.973 5.89676 19.973ZM11.4836 16.793C11.4836 16.7106 11.4227 16.6433 11.3482 16.6433H10.3324C10.2579 16.6433 10.1969 16.7106 10.1969 16.793C10.1969 19.4174 8.27202 21.5443 5.89676 21.5443C3.5215 21.5443 1.59658 19.4174 1.59658 16.793C1.59658 16.7106 1.53563 16.6433 1.46114 16.6433H0.445345C0.370854 16.6433 0.309906 16.7106 0.309906 16.793C0.309906 19.9487 2.45323 22.5525 5.21957 22.921V24.8365H2.75966C2.52772 24.8365 2.34149 25.104 2.34149 25.4351V26.1085C2.34149 26.1908 2.38889 26.2582 2.44645 26.2582H9.34707C9.40463 26.2582 9.45203 26.1908 9.45203 26.1085V25.4351C9.45203 25.104 9.2658 24.8365 9.03386 24.8365H6.50624V22.9304C9.30474 22.5937 11.4836 19.9748 11.4836 16.793Z" fill="#232323"/>
<path d="M46.4076 11.4436C46.3232 11.5289 46.2563 11.6301 46.2106 11.7417C46.165 11.8532 46.1415 11.9728 46.1415 12.0936C46.1415 12.2143 46.165 12.3339 46.2106 12.4454C46.2563 12.557 46.3232 12.6583 46.4076 12.7435L50.2904 16.6806H39.2054C38.9654 16.6806 38.7353 16.7773 38.5656 16.9494C38.3959 17.1214 38.3005 17.3548 38.3005 17.5982C38.3005 17.8415 38.3959 18.0749 38.5656 18.247C38.7353 18.4191 38.9654 18.5157 39.2054 18.5157H50.2904L46.4076 22.4544C46.2376 22.6268 46.1421 22.8606 46.1421 23.1043C46.1421 23.3481 46.2376 23.5819 46.4076 23.7543C46.5776 23.9267 46.8082 24.0235 47.0486 24.0235C47.289 24.0235 47.5195 23.9267 47.6895 23.7543L53.1189 18.2489C53.2033 18.1636 53.2702 18.0624 53.3159 17.9508C53.3615 17.8393 53.385 17.7197 53.385 17.5989C53.385 17.4782 53.3615 17.3586 53.3159 17.2471C53.2702 17.1355 53.2033 17.0342 53.1189 16.949L47.6895 11.4436C47.6055 11.3581 47.5056 11.2902 47.3956 11.2439C47.2856 11.1976 47.1677 11.1737 47.0486 11.1737C46.9295 11.1737 46.8116 11.1976 46.7016 11.2439C46.5916 11.2902 46.4917 11.3581 46.4076 11.4436Z" fill="white"/>
</svg>
